<?xml version="1.0" encoding="UTF-8"?>
<svg id="Layer_2" data-name="Layer 2" xmlns="http://www.w3.org/2000/svg" xmlns:xlink="http://www.w3.org/1999/xlink" viewBox="0 0 1670.83 341.5">
  <defs>
    <style>
      .cls-1 {
        fill: #023249;
      }

      .cls-1, .cls-2, .cls-3, .cls-4, .cls-5, .cls-6, .cls-7 {
        stroke-width: 0px;
      }

      .cls-2 {
        fill: url(#linear-gradient);
      }

      .cls-8 {
        isolation: isolate;
      }

      .cls-9 {
        opacity: .23;
      }

      .cls-4 {
        fill: #fff;
      }

      .cls-5 {
        fill: url(#linear-gradient-2);
      }

      .cls-6 {
        fill: url(#linear-gradient-3);
      }

      .cls-10 {
        opacity: .12;
      }

      .cls-7 {
        fill: #434343;
      }

      .cls-11 {
        filter: url(#luminosity-noclip);
      }

      .cls-12 {
        mask: url(#mask);
      }
    </style>
    <linearGradient id="linear-gradient" x1="1473.33" y1="-222" x2="1473.33" y2="773.5" gradientUnits="userSpaceOnUse">
      <stop offset=".26" stop-color="#4efce9"/>
      <stop offset=".32" stop-color="#4af5d1"/>
      <stop offset=".44" stop-color="#41e696"/>
      <stop offset=".5" stop-color="#3ddf7a"/>
    </linearGradient>
    <filter id="luminosity-noclip" x="1297.94" y="113.94" width="134.56" height="89.4" color-interpolation-filters="sRGB" filterUnits="userSpaceOnUse">
      <feFlood flood-color="#fff" result="bg"/>
      <feBlend in="SourceGraphic" in2="bg"/>
    </filter>
    <linearGradient id="linear-gradient-2" x1="1395.53" y1="176.09" x2="1335.29" y2="141.66" gradientTransform="translate(2732.83 318.94) rotate(-180)" gradientUnits="userSpaceOnUse">
      <stop offset="0" stop-color="#000" stop-opacity="0"/>
      <stop offset="1" stop-color="#000"/>
    </linearGradient>
    <mask id="mask" x="1297.94" y="113.94" width="134.56" height="89.4" maskUnits="userSpaceOnUse">
      <g class="cls-11">
        <path class="cls-5" d="M1346.95,115.6l-49.01,85.49,87.34,2.25,47.22-86.83-85.55-.91Z"/>
      </g>
    </mask>
    <linearGradient id="linear-gradient-3" x1="671.86" y1="187.42" x2="671.86" y2="250.02" gradientUnits="userSpaceOnUse">
      <stop offset="0" stop-color="#d3d3d3"/>
      <stop offset=".13" stop-color="#dfdfdf"/>
      <stop offset=".4" stop-color="#f0f0f0"/>
      <stop offset=".68" stop-color="#fbfbfb"/>
      <stop offset="1" stop-color="#fff"/>
    </linearGradient>
  </defs>
  <g id="full" class="cls-8">
    <g id="Plus_Sign" data-name="Plus Sign" class="cls-8">
      <g id="offset_drop" data-name="offset drop">
        <path id="offset_color" data-name="offset color" class="cls-1" d="M1626.62,23l-61.29,105.4h105.49l-62.73,108.07h-105.5l-60.98,105.04h-108l60.95-105h-105.01l62.75-108.05h104.98l61.22-105.45h108.11Z"/>
        <g id="offset_striping" data-name="offset striping" class="cls-9">
          <path class="cls-3" d="M1508.35,41h108.09l6.11-11h-108.1l-6.1,11Z"/>
          <path class="cls-3" d="M1496.16,62h108.07l6.11-11h-108.08l-6.1,11Z"/>
          <path class="cls-3" d="M1483.97,83h108.06l6.11-11h-108.06l-6.1,11Z"/>
          <path class="cls-3" d="M1471.77,104h108.04l6.11-11h-108.05l-6.1,11Z"/>
          <path class="cls-3" d="M1459.58,125h108.02l6.11-11h-108.03l-6.1,11Z"/>
          <path class="cls-3" d="M1342.41,146h318.49l6.1-11h-318.49l-6.1,11Z"/>
          <path class="cls-3" d="M1330.21,167h318.5l6.1-11h-318.49l-6.1,11Z"/>
          <path class="cls-3" d="M1318.02,188h318.5l6.1-11h-318.5l-6.1,11Z"/>
          <path class="cls-3" d="M1305.82,209h318.51l6.1-11h-318.5l-6.1,11Z"/>
          <path class="cls-3" d="M1293.62,230h318.51l6.1-11h-318.51l-6.1,11Z"/>
          <path class="cls-3" d="M1386.44,251h108l6.1-11h-108l-6.1,11Z"/>
          <path class="cls-3" d="M1374.25,272h108l6.1-11h-108l-6.1,11Z"/>
          <path class="cls-3" d="M1362.06,293h108l6.1-11h-108l-6.1,11Z"/>
          <path class="cls-3" d="M1349.87,314h108l6.1-11h-108l-6.1,11Z"/>
          <path class="cls-3" d="M1337.68,335h108l6.1-11h-108l-6.1,11Z"/>
        </g>
      </g>
      <g id="plus_interior" data-name="plus interior">
        <polygon id="plus_color" data-name="plus color" class="cls-2" points="1596.26 11.88 1514.54 9.45 1450.53 118.45 1348.36 117.05 1301.2 200.04 1400.42 200.6 1341.24 305.35 1427.69 309.22 1486.38 202.21 1591.72 204.18 1645.45 121.87 1537.65 119.3 1596.26 11.88"/>
        <g id="striping" class="cls-10">
          <path class="cls-7" d="M1496.31,41h84.33l5.73-11h-83.9l-6.17,11Z"/>
          <path class="cls-7" d="M1483.98,62h85.21l5.73-11h-84.77l-6.17,11Z"/>
          <path class="cls-7" d="M1471.64,83h86.09l5.73-11h-85.65l-6.17,11Z"/>
          <path class="cls-7" d="M1459.31,104h86.96l5.73-11h-86.52l-6.17,11Z"/>
          <path class="cls-7" d="M1450.53,118l-101.79-1.39-4.2,7.39h299.19l1.72-2.51-107.8-2.45,2.89-5.05h-87.4l-2.61,4Z"/>
          <path class="cls-7" d="M1332.2,146h297.83l6.85-11h-298.72l-5.97,11Z"/>
          <path class="cls-7" d="M1320.26,167h296.05l6.85-11h-296.94l-5.97,11Z"/>
          <path class="cls-7" d="M1308.33,188h294.28l6.85-11h-295.17l-5.97,11Z"/>
          <path class="cls-7" d="M1302.29,200l98.67.52-4.22,7.48h86.19l3.45-5.99,105.34,1.88,4.03-5.88h-292.33l-1.14,2Z"/>
          <path class="cls-7" d="M1384.09,230h87.32l5.76-11h-87.15l-5.93,11Z"/>
          <path class="cls-7" d="M1372.23,251h87.67l5.76-11h-87.49l-5.93,11Z"/>
          <path class="cls-7" d="M1360.36,272h88.01l5.76-11h-87.84l-5.93,11Z"/>
          <path class="cls-7" d="M1348.5,293h88.36l5.76-11h-88.19l-5.93,11Z"/>
          <path class="cls-7" d="M1341.24,305.35l86.45,3.87,3.41-6.22h-88.53l-1.33,2.35Z"/>
        </g>
      </g>
      <g class="cls-12">
        <path id="side_gradient" data-name="side gradient" class="cls-3" d="M1382.53,201.68l49.01-85.49-86.34-2.25-47.22,86.83,84.55.91Z"/>
      </g>
      <path id="outline" class="cls-3" d="M1617.5,0l-61.29,105.4h105.49l-62.73,108.07h-105.5l-60.98,105.04h-108l60.95-105h-105.01l62.75-108.05h104.98L1509.39,0h108.11ZM1519.06,129.01c20.53-35.37,40.8-70.3,61.21-105.47h-61.07c-20.4,35.13-40.79,70.25-61.24,105.49h-105c-11.79,20.31-23.5,40.49-35.47,61.12h105.02c-20.42,35.11-40.63,69.88-60.91,104.75h61.15c20.29-34.95,40.56-69.87,60.9-104.9h105.5c11.78-20.3,23.5-40.49,35.4-60.99h-105.49Z"/>
    </g>
    <g id="Project_Text" data-name="Project Text" class="cls-8">
      <g id="Project">
        <path id="letter_color" data-name="letter color" class="cls-4" d="M18,278.5c0-.17,0-.33,0-.5C67.09,200.13,112.44,119.42,160.28,40.61c39.4-.18,79.47-3.75,118.57-1.79,54.72,24.97,38.88,36.02,72.65-1.7,47.5,1.05,94.55,1.99,141.98,3.09,9.65,2.29,17.92,9.08,27.01,13.05,5.59,3.3,6.53,10.66,9.99,15.88,18.13-8.76,34.77-20.28,53.34-27.08,19.47-2.34,38.7-7.38,58.33-7.6,12.33,1.97,25.59,1.08,37.49,4.41,7.28,7.09,17.1,12.65,22.81,20.9,2.94,20.13,5.69,40.29,8.67,60.42.25.11.51.21.76.32,14.58-30.28,35.28-56.53,54.22-84.15h317.99c1.18,4.76,2.39,9.65,3.61,14.62,71.21-23.28,52.05-20.22,125.68-10.45,5.98,6.89,11.82,13.6,17.81,20.49,6.4-9.03,12.63-17.84,18.87-26.66,64.05.48,127.94.96,192.02,1.44-9.98,44.88-10.54,40.51-36.85,76.76-18.41-.53-36.72-1.07-55.17-1.6-32.57,55.93-65.1,111.8-97.65,167.71-26.96-.49-53.73-.97-80.87-1.46,12.86-28.63,25.49-56.75,38.12-84.88-29.91,22.25-56.48,49.87-86.79,71.55-14.55,4.75-29.11,9.45-43.73,14-15.97,4-32.85,2.25-49.18,3.46-16.01-4.32-31.22-13.29-46.71-19.25-2.83-4.98-5.54-9.74-8.4-14.77-5.66,10.44-11.15,20.58-16.66,30.76-65.12-.37-130.06-.73-195.18-1.1,1.61-6.62,3.13-12.89,4.76-19.6-53.63,24.73-42.52,21.3-101.31,22.18-10.09-2.29-19.58-7.46-29.36-10.95-7.86-6.8-11.61-17.79-18.04-26.03-10.2,6.29-20.17,12.78-30.32,19.13-15.26,7.12-31.38,12.48-46.96,18.92-9.53,2.02-19.62,1.04-29.34,1.95-5.64.2-11.27.98-16.92.93-12-5.48-24.34-10.29-36.42-15.47-9.59-13.99-14.12-31.85-28.57-41.53-.46,16.68-.9,32.79-1.35,49.12-30.79.28-61.24.56-91.91.84-.8-14.83-1.59-29.39-2.42-44.66-12.69,16.44-24.93,32.3-37.24,48.25-28.28-.67-56.52-1.33-85.13-2.01,12.51-25.55,24.78-50.64,37.33-76.29-32.67,4.94-64.81,9.81-96.69,14.63-14.16,22.03-28.02,43.59-41.91,65.19-31.08-.92-62.15-2.09-93.23-3.06Z"/>
        <path id="gradient" class="cls-6" d="M978.37,253.51c-1.22-2.1-2.33-4.02-3.56-6.15-1.19,2.15-2.23,4.04-3.41,6.17-115.41-.38-230.89-.76-346.01-1.13-2.31-3.62-4.24-6.63-6.33-9.9-16.02,11.55-17.92,9.67-36.72,9.01-24.06-.21-48.09-.34-72.14-.19-12.45.27-24.9-.14-37.35-.33-6.54-.97-19.95,1.59-24.65-2-5.46-8.39-7.9-17.39-17.94-22.26v23.51h-94.4c-.33-5.91-.66-11.79-1.03-18.44-5.04,6.52-9.68,12.52-14.2,18.37h-94.51c7.95-16.26,15.66-32.04,23.68-48.43-32.65,4.94-64.77,9.8-96.67,14.62-7.26,11.29-14.24,22.14-21.22,33-31.64-.35-63.23-.69-95.25-1.04,12.7-21.35,25.31-42.55,37.93-63.76h1232.47c-12.99,22.63-26.28,45.02-39.23,67.66-1.49,2.59-3.26,3.2-5.9,3.09-26.99-.39-53.35-.21-80.47-.33,9.45-21.05,18.79-41.85,28.13-62.65-.12-.09-.23-.18-.35-.27-23.89,19.77-47.46,39.96-71.04,60.1-2.98,2.56-5.98,2.77-9.28,2.76-50.2-.61-100.34-.78-150.54-1.42Z"/>
      </g>
      <g id="stroke">
        <path id="stroke_color" data-name="stroke color" class="cls-3" d="M441.18,265.02s-.06-.07-.1-.11c-.69-.66-1.53-1.18-2.43-1.88-.39,9.02-.76,17.6-1.13,26.31h-116.35c2.4-11.61,4.8-23.18,7.2-34.75-6.75,11.64-13.51,23.29-20.13,34.7h-118.42c13.85-23.81,27.54-47.33,41.28-70.94-.63-.22-.8-.35-.93-.31-10.23,2.37-20.39,5.07-30.69,7.04-7.65,1.46-15.47,2.2-23.24,2.83-5.13.42-10.33.19-15.49.04-3.74-.11-6.33,1.66-8.3,4.51-1.4,2.03-2.49,4.27-3.74,6.4-6.48,11.04-12.95,22.09-19.44,33.12-3.41,5.81-6.86,11.6-10.3,17.41H0C51.74,202.09,103.34,115,154.9,28c1.35,0,2.34,0,3.34,0,32.39.17,64.77.43,97.16.45,11.77,0,23.4.78,34.74,4.08,9.59,2.79,18.42,7.11,26.12,13.53,3.03,2.53,5.86,5.3,9,8.17,5.98-8.83,11.87-17.54,17.76-26.23,1.17,0,2.17,0,3.16,0,26.14.17,52.27.35,78.41.49,11.08.06,22.16.02,33.25,0,11.6-.01,23.21-.26,34.73,1.51,9.01,1.39,17.68,3.88,25.41,8.83,4.7,3.01,9.23,6.3,12.59,10.94,1.76,2.44,3.75,4.71,5.46,6.84,6.94-4.02,13.57-8.39,20.65-11.84,8.71-4.24,17.65-8.1,26.75-11.42,14.49-5.29,29.57-8.26,44.95-9.28,10.92-.72,21.87-.01,32.64,2.02,11.42,2.15,21.99,6.45,31.45,13.38,8.39,6.14,15.01,13.76,19.7,22.98,4.68,9.21,7.08,19.04,6.89,29.43l1.97.53c12.25-21.45,24.5-42.9,36.65-64.18h357.97c-1.17,2-2.17,3.71-3.25,5.54.47.04.72.13.93.07,36.35-10.91,78.88-17.73,111.6,6.34,2.15,1.55,4.37,3.01,6.59,4.53,4.07-5.78,11.76-16.66,11.76-16.66l225.21.79s-39.58,64.76-59.39,97.17h-55.54c-31.2,54.56-62.37,109.08-93.36,163.27h-110.37c13.62-23.88,27.07-47.46,40.52-71.04l-6.72,6.7c-27.84,28.9-60.32,54.8-100.01,64.59-31.02,8.2-66.95,8.5-94.45-9.99-4.46-2.98-8.78-6.18-13.25-9.34-3.67,6.47-7.32,12.91-10.86,19.14h-223.16s3.33-5.84,3.33-5.84c-.78.04-1.13-.04-1.4.08-37.37,14.22-90.88,21.21-119.65-12.67-2.78-3.7-5.16-7.7-7.78-11.64-3.18,2.04-6.47,4.2-9.8,6.3-25.33,16.51-54.88,25.23-84.59,29.43-30.02,2.19-61.15-5.9-80.83-29.98ZM983.99,212.38c-1.39,6.76-2.66,13.42-1.68,20.47,5.04,38.37,50.8,38.93,80.94,36.94,39.39-2.93,72.16-26.16,97.25-55.39,7.48-8.65,13.24-18.57,18.07-28.97.32-.69.53-1.42.87-2.33h-58.71c-7.44,10.62-16.12,19.83-27.24,26.45-10.86,6.47-22.47,8.91-34.9,5.29-2.71-.79-5.04-2.15-6.32-5.03-1.76-3.96-.29-7.45,1.36-10.77,4.85-9.77,9.83-19.48,14.96-29.1,3.41-6.39,7.08-12.64,10.81-18.85,5.66-9.42,11.45-18.76,17.24-28.09,3.78-6.08,8.06-11.72,13.81-16.19,6.76-5.26,14.5-8.16,22.74-9.64,5.01-.9,10.2-1.1,15.3-1.02,2.29.03,4.89,1.07,6.76,2.44,3.97,2.9,3.1,7.4,2.54,11.45-.55,3.94-1.64,7.81-2.53,11.84h60.46c2.9-6.85,5.77-13.65,8.54-20.19h53.88c-30.99,54.87-61.82,109.46-92.76,164.24h61.96c31.76-54.82,63.47-109.58,95.21-164.36h55.76c11.04-18.09,22.06-36.13,33.26-54.47h-178.39c-8.93,16.53-17.88,33.09-26.99,49.96.33-3.28.46-6.15.94-8.96,5.39-33.69-32.56-48.98-60.62-47.26-42.42,3.02-84.42,19.64-112.9,52.16-6.24,8.08-12.65,16.17-18.01,24.87-7.32,11.89-14.13,24.1-20.94,36.3-7.22,12.93-14.25,25.97-21.22,39.04-3.13,5.87-5.92,11.93-8.77,17.73h-110.11c6.6-10.98,12.96-21.56,19.26-32.03h80.83c10.38-17.44,20.68-34.74,31.38-52.72h-82.81c4.68-8.77,9.03-16.92,13.41-25.14h103.66c11.26-17.92,22.49-35.79,33.88-53.92h-169.6c-41.78,72.91-83.5,145.73-125.36,218.79h172.1c10.91-17.89,21.78-35.71,32.65-53.53ZM297.97,265.28c31.11-54.18,62.2-108.33,93.1-162.16h45.95c-24.14,17.13-47.86,33.96-71.75,50.91-6.33,37.18-12.68,74.43-19.05,111.81h71.78c3.1-32.17,6.19-64.2,9.25-95.94,6.39-4.71,12.47-9.26,18.61-13.72,15.42-11.18,31.34-21.7,45.66-34.33,10.19-8.98,19.75-18.46,25.28-31.28,2.86-6.63,4.74-13.31,3.21-20.54-1.94-9.15-6.83-15.88-15.69-19.68-6.33-2.71-12.99-3.22-19.59-3.25-42.83-.19-85.67-.1-128.5-.1h-2.63c-42.81,73.04-85.48,145.86-128.3,218.92,0,0,63.96,0,71.57,0,.46,0,.88-.25,1.11-.64ZM635.37,40.05c-38.46,1.36-75.86,18.13-104.47,43.55-5.23,5.07-10.13,10.69-14.13,16.76-13.13,19.95-25.4,40.48-37.83,60.87-7.54,14.75-16.26,29.06-23.15,44.18-4.3,9.44-6.18,19.47-3.95,30.02,4.87,25.97,33.27,34.63,56.39,35.41,39.2.85,78.09-16.24,107.94-40.96,6.97-6.22,13.25-13.19,18.25-21.16,7.04-11.23,14.06-22.46,20.85-33.83,7.64-12.79,15.2-25.64,22.43-38.67,5.44-9.81,10.62-19.79,15.35-29.95,4.43-9.53,5.92-19.67,4.02-30.2-4.98-28.63-36.96-35.6-61.7-36.01ZM165.45,47L36.3,265.94h71.33c12.33-20.69,24.63-41.32,36.87-61.86.55-.04.88-.08,1.21-.08,16.08-.06,32.22.74,48.14-2.08,34.08-4.88,66.12-21.7,88.78-47.73,4.28-4.76,8.31-9.78,12.1-14.95,6.34-8.64,11.25-18.13,15.45-27.98,7-16.21,9.04-37.45-3.95-51.25-8.52-9.12-19.53-12.82-31.54-12.92-35.5-.28-71-.1-106.5-.1h-2.75ZM704.61,189.63c.61-2.64-.82-5.45-3.42-6.23-.15-.04-.29-.08-.44-.11-6.06-1.08-12.15-2.42-18.26-2.66-7-.27-14.04.64-21.07.82-5.64.15-9.52,2.61-12.86,7.23-5.37,7.44-9.23,15.55-12.07,24.14-19.55,64.49,51.95,63.83,94.44,50.31,25.34-7.64,49.05-23.04,65.01-44.24,7.67-10.31,14.31-21.41,21.03-32.4,7.02-11.48,13.61-23.22,20.36-34.87,5.7-9.84,11.4-19.69,17.04-29.57,4.55-7.98,8.99-16.01,13.49-24.02,4.89-8.71,9.8-17.41,14.7-26.11,3.09-5.49,6.19-10.98,9.24-16.5,1.48-2.68,2.85-5.41,4.4-8.36h-126.41c-10.12,17.85-20.22,35.64-30.63,53.98h62.59c-1.19,2.67-2.1,4.97-3.22,7.15-3.97,7.75-7.97,15.47-12.04,23.17-2.57,4.85-5.18,9.69-7.95,14.43-6.03,10.29-12.09,20.58-18.32,30.75-7.31,11.93-14.85,23.73-26.15,32.46-8.69,6.71-18.17,9.47-28.95,5.84-3.85-1.3-5.41-3.66-4.67-7.63.59-3.21,1.55-6.35,2.3-9.53.63-2.66,1.25-5.33,1.88-8.08Z"/>
        <path id="stroke_color-2" data-name="stroke color" class="cls-3" d="M526.44,214.53c-6.09-1.79-8.06-7.52-6.13-12.62,2.51-6.64,5.88-12.98,9.19-19.28,3.53-6.74,7.35-13.34,11.17-19.92,5.9-10.15,11.79-20.3,17.92-30.3,3.24-5.29,6.66-10.54,10.59-15.32,8.53-10.39,18.92-18.09,32.55-20.62,6.16-1.14,12.26-1.52,18.4-.01,8.72,2.14,11.85,8.08,7.98,16.32-3.52,7.49-7.59,14.73-11.57,21.99-3.7,6.74-7.61,13.37-11.44,20.04-3.61,6.29-7.16,12.62-10.88,18.84-3.78,6.32-7.52,12.68-11.65,18.78-8.66,12.78-20.61,20.63-35.95,23.1-3.01.48-5.74,1.13-9.06,1.13-3.32,0-7.52-1.06-11.11-2.12Z"/>
        <path id="stroke_color-3" data-name="stroke color" class="cls-3" d="M175.93,150.01c8.96-15.89,17.67-31.34,26.51-47.01,6.52,0,13.17-.13,19.81.04,6.11.15,12.22.47,18.3,1.01,6.93.61,10.62,7.38,7.52,13.88-1.36,2.85-3.1,5.66-5.21,8-10.46,11.59-22.03,21.39-38.36,23.66-7.93,1.1-15.8,1.18-23.72.44-1.45-.14-2.93-.02-4.84-.02Z"/>
      </g>
    </g>
  </g>
</svg>